# xmcd
#
# Track frame offsets:
#	150
#	18004
#	36928
#	55752
#	72257
#	88041
#	109082
#	122727
#	142001
#	160378
#	178600
#	199172
#	222550
#	239104
#	256782
#	273666
#	290346
#	310986
#
# Disc length: 4383 seconds
#
# Revision: 0
# Processed by: cddbd v1.5.2PL0 Copyright (c) Steve Scherf et al.
# Submitted via: EasyCDDAExtractor 15.3.0.1
#
DISCID=14111d12
DTITLE=Various Artist - Disco Polo New Hits 8
DYEAR=2009
DGENRE=disco polo
TTITLE0=Tarzan Boy - Samoloty
TTITLE1=Drossel - Kochac Ciebie Zawsze Chce
TTITLE2=The Dance - Sexi Anetka
TTITLE3=Effect - Wakacje Z Blondyna
TTITLE4=Solaris - Sciagaj Ubranie
TTITLE5=Spike - Czary Mary
TTITLE6=Chicago Marszalek Band - Krolewska Rozpusta
TTITLE7=Neo - Spojrz Kochanie
TTITLE8=Maxx Dance - Przeznaczenie Serce Moje Zabralas
TTITLE9=Drossel - Zostan Ze Mna
TTITLE10=Effect - Pokaz Mi Kochanie
TTITLE11=Chicago Marszalek Band - Cadilaki Elvisa
TTITLE12=Cover - Moje Sny
TTITLE13=Maxx Dance - Wszystko Co W Nas
TTITLE14=Dj Farad - Nogi (Summer Girls Version)
TTITLE15=Spike - Naiwne Dziewczyny (Lato Rmx)
TTITLE16=Wabank - Disco Lady
TTITLE17=Drossel - Gorace Wakacje
EXTD=
EXTT0=
EXTT1=
EXTT2=
EXTT3=
EXTT4=
EXTT5=
EXTT6=
EXTT7=
EXTT8=
EXTT9=
EXTT10=
EXTT11=
EXTT12=
EXTT13=
EXTT14=
EXTT15=
EXTT16=
EXTT17=
PLAYORDER=
